<svg xmlns="http://www.w3.org/2000/svg" viewBox="0 0 1200 675" role="img" aria-labelledby="title desc">
<title id="title">ICU Digital Twins</title><desc id="desc">Illustrated title card for the article ICU Digital Twins.</desc>
<rect width="1200" height="675" fill="#ffffff"/>
<rect x="54" y="54" width="1092" height="567" fill="#ffffff" stroke="#11110f" stroke-width="7"/>
<rect x="88" y="88" width="1024" height="499" fill="#ffffff" stroke="#11110f" stroke-width="5"/>
<rect x="132" y="132" width="256" height="200" fill="#e8f2e3" stroke="#11110f" stroke-width="5"/>
<path d="M168 288 L232 210 L300 268 L352 164" fill="none" stroke="#11110f" stroke-width="12" stroke-linecap="round" stroke-linejoin="round"/>
<circle cx="352" cy="164" r="22" fill="#f5c842" stroke="#11110f" stroke-width="6"/>
<rect x="456" y="142" width="574" height="76" fill="#f5c842" opacity="0.72" rx="10"/>
<text x="486" y="193" font-family="Arial, Helvetica, sans-serif" font-size="46" font-weight="900" fill="#11110f">ICU Digital Twins</text>
<text x="486" y="260" font-family="Arial, Helvetica, sans-serif" font-size="28" font-weight="700" fill="#3f4039">clinical AI · temporal modeling</text>
<line x1="456" y1="310" x2="1030" y2="310" stroke="#11110f" stroke-width="4" stroke-dasharray="10 14" opacity="0.45"/>
<rect x="456" y="362" width="274" height="116" fill="#e8f2e3" stroke="#11110f" stroke-width="4"/>
<rect x="770" y="362" width="260" height="116" fill="#e8f2e3" stroke="#11110f" stroke-width="4"/>
<text x="484" y="414" font-family="Arial, Helvetica, sans-serif" font-size="28" font-weight="800" fill="#11110f">Research note</text>
<text x="484" y="454" font-family="Arial, Helvetica, sans-serif" font-size="22" fill="#30302b">accessible technology</text>
<text x="798" y="414" font-family="Arial, Helvetica, sans-serif" font-size="28" font-weight="800" fill="#11110f">Khang Dang</text>
<text x="798" y="454" font-family="Arial, Helvetica, sans-serif" font-size="22" fill="#30302b">HCI · AI · XR</text>
<rect x="132" y="522" width="898" height="40" fill="#ffffff" stroke="#11110f" stroke-width="4"/>
<circle cx="1078" cy="542" r="18" fill="#f5c842" stroke="#11110f" stroke-width="5"/>
</svg>